<?xml version="1.0" encoding="UTF-8"?>
<svg version="1.1" viewBox="0 0 800 800" width="1280" height="1280" xmlns="http://www.w3.org/2000/svg">
	<path transform="translate(376,10)" d="m0 0h45l27 2 26 4 27 6 31 9 25 12 27 13 19 10 19 12 12 9 14 11 10 9 8 7 11 12 8 7 14 15 11 14 13 18 11 18 18 35 10 18 9 24 9 33 6 30 3 27 1 14v42l-3 34-6 32-7 27-7 22-7 17-8 14-11 22-12 22-11 16-13 17-12 14-12 13-8 7-7 8-12 11-11 9-20 15-18 11-22 12-42 21-24 8-31 8-27 5-25 3-16 1h-36l-36-3-29-5-31-8-20-6-19-8-14-8-22-11-22-12-16-11-12-9-11-9-12-11-8-7-9-10-8-7-7-8-9-10-10-13-13-18-12-21-14-27-9-20-7-14-8-26-6-24-4-21-4-36v-54l3-30 7-36 10-35 6-16 9-17 9-19 12-22 8-14 12-17 11-14 9-10 7-8 7-7 7-6 7-8 8-8 11-9 15-12 24-16 28-15 35-17 10-5 26-8 29-7 23-4 18-2z" />
	<path transform="translate(426,160)" d="m0 0h16l10 3 9 6 8 11 10 21 11 24 31 62 10 19 20 40 13 29 16 32 9 19 8 16 10 18 17 34 13 28 12 26 2 7v10l-4 13-8 10-9 6-14 5-7-1-15-5-23-15-17-11-21-13-32-18-20-12-9-7-25-14-36-18-19-10-30-14-15-6-8-3-2 6-12 22-15 28-8 16-13 25-8 13-4 5-8 14-7 8-10 6-12 4-7-1-12-5-11-7-19-13-10-9-8-7-23-23-10-13-7-11-13-20-8-16-5-19-1-7v-21l3-16 5-13 9-14 9-11 17-17 15-8 16-5 11-2 13-1h21l27 3 38 8 17 4 2-6 15-28 14-26 8-16 12-22 6-8 15-28 8-14 11-23 7-11 7-7 10-5z" fill="#FEFEFE" />
	<path transform="translate(431,282)" d="m0 0 3 1 5 10 6 9 23 46 12 27 20 40 12 26 8 16-1 2-21-12-18-12-26-14-21-10-23-11-28-13-4-2 1-5 10-19 8-16 16-30 12-22z" />
	<path transform="translate(201,416)" d="m0 0h30l22 4 13 3 1 4-8 16-13 25-12 22-6 10h-4l-18-18-14-16-8-15-2-7v-13l4-8 5-4z" />
</svg>
